<?xml version="1.0" encoding="utf-8"?>
<!-- Generator: Adobe Illustrator 26.1.0, SVG Export Plug-In . SVG Version: 6.00 Build 0)  -->
<svg version="1.1" id="a" xmlns="http://www.w3.org/2000/svg" xmlns:xlink="http://www.w3.org/1999/xlink" x="0px" y="0px"
	 viewBox="0 0 945.2 158" style="enable-background:new 0 0 945.2 158;" xml:space="preserve">
<style type="text/css">
	.st0{fill:#9FA6B1;}
</style>
<g>
	<polygon class="st0" points="114.1,105.9 67.5,132.8 0,93.9 0,118 67.5,157 135,118 135,76 67.5,37 31.2,58 31.2,64.1 46.7,73.1 
		67.5,61 114.1,88 	"/>
	<polygon class="st0" points="20.9,52.1 67.5,25.2 135,64.1 135,40 67.5,1 0,40 0,82 67.5,121 103.8,100 103.8,93.9 88.3,84.9 
		67.5,97 20.9,70 	"/>
	<path class="st0" d="M937.2,108c0.5-0.2,1-0.6,1.2-1.1c0.3-0.5,0.4-1,0.4-1.6c0-0.7-0.2-1.4-0.6-1.9c-0.4-0.5-1-0.8-1.6-1
		c-0.4-0.1-1.2-0.1-2.4-0.1h-2.3v11h1.4v-4.9h0.3l3.8,4.9l0.1,0.1h1.8l-3.8-4.9C936.2,108.4,936.8,108.3,937.2,108 M936.5,106.8
		c-0.3,0.1-0.8,0.2-1.5,0.2l-1.7,0v-3.3h1.7c0.7,0,1.2,0.1,1.5,0.2c0.3,0.1,0.5,0.3,0.7,0.6c0.2,0.3,0.3,0.6,0.3,0.9
		c0,0.3-0.1,0.6-0.3,0.9C937,106.5,936.8,106.7,936.5,106.8"/>
	<path class="st0" d="M934.9,97.6c-5.7,0-10.3,4.6-10.3,10.3c0,5.7,4.6,10.3,10.3,10.3c5.7,0,10.3-4.6,10.3-10.3
		C945.2,102.2,940.6,97.6,934.9,97.6 M943.8,107.9c0,4.9-4,8.9-8.9,8.9c-4.9,0-8.9-4-8.9-8.9c0-4.9,4-8.9,8.9-8.9
		C939.8,99,943.8,103,943.8,107.9"/>
	<polygon class="st0" points="180,117.2 180,40.7 189.3,40.7 189.3,108.9 209.6,108.9 209.6,117.2 	"/>
	<polygon class="st0" points="217.4,117.2 217.4,40.7 247,40.7 247,49 226.7,49 226.7,74.7 244.2,74.7 244.2,82.9 226.7,82.9 
		226.7,108.9 247,108.9 247,117.2 	"/>
	<path class="st0" d="M272.4,118.1c-6,0-10.2-2.4-13.1-5.6c-4.9-5.5-5.6-12.3-5.6-33.5c0-21.2,0.6-28,5.6-33.5
		c2.9-3.2,7.1-5.6,13.1-5.6c5.4,0,9.5,1.8,12.4,4.7c3.5,3.5,5.2,8.9,5.3,15h-9.1c-0.1-5.2-1.4-11.5-8.5-11.5c-3,0-5,1.2-6.3,2.9
		c-2.7,3.7-3.1,9.8-3.1,27.9s0.4,24.3,3.1,27.9c1.3,1.7,3.3,2.9,6.3,2.9c5.4,0,8.5-4.4,8.5-10.6V83.8h-8.5v-7.6h17.7v22.7
		C290,111.6,282.4,118.1,272.4,118.1"/>
	<polygon class="st0" points="299.5,117.2 299.5,40.7 329,40.7 329,49 308.7,49 308.7,74.7 326.2,74.7 326.2,82.9 308.7,82.9 
		308.7,108.9 329,108.9 329,117.2 	"/>
	<polygon class="st0" points="366.8,117.2 347.1,64.9 347.1,117.2 337.8,117.2 337.8,40.7 346.4,40.7 366,93 366,40.7 375.2,40.7 
		375.2,117.2 	"/>
	<path class="st0" d="M416.7,111.8c-2.8,3.1-6.9,5.4-13.1,5.4H386V40.7h17.6c6.2,0,10.3,2.3,13.1,5.4c4.9,5.3,5.5,12.1,5.5,32.9
		C422.2,99.7,421.7,106.6,416.7,111.8 M409.9,51.9c-1.4-1.7-3.5-2.9-6.6-2.9h-8.1v59.9h8.1c3,0,5.2-1.2,6.6-2.9
		c2.9-3.5,3.1-9.4,3.1-27.1C413,61.4,412.8,55.4,409.9,51.9"/>
	<path class="st0" d="M460.9,117.2l-3.7-18h-17.7l-3.7,18h-9.7l17.8-76.5h8.9l17.7,76.5H460.9z M448.5,55.7l-7.2,35.2h14.3
		L448.5,55.7z"/>
	<path class="st0" d="M505.8,117.2l-10.5-32.9H487v32.9h-9.2V40.7H495c11.6,0,18,5,18,21.8c0,10.6-2.6,16.9-9.2,20l11.7,34.7H505.8z
		 M495.1,49H487v27.2h8.2c7.1,0,8.7-5.5,8.7-13.6C503.8,54.4,502.2,49,495.1,49"/>
	<polygon class="st0" points="541,86.3 541,117.2 531.8,117.2 531.8,86.3 517.7,40.7 527.8,40.7 536.4,73.4 545,40.7 555.2,40.7 	
		"/>
	<polygon class="st0" points="608.6,117.2 608.6,82.4 591.6,82.4 591.6,117.2 582.4,117.2 582.4,40.7 591.6,40.7 591.6,74.1 
		608.6,74.1 608.6,40.7 617.8,40.7 617.8,117.2 	"/>
	<path class="st0" d="M658.6,113c-3.3,3.3-7.8,5-12.8,5c-4.9,0-9.3-1.7-12.7-5c-3.1-3.1-4.9-7.6-4.9-13.2V40.7h9.2v59.6
		c0,6,3.8,9.5,8.4,9.5c4.6,0,8.5-3.4,8.5-9.5V40.7h9.2v59.1C663.5,105.4,661.7,109.9,658.6,113"/>
	<polygon class="st0" points="712.9,117.2 712.9,62.8 700.8,98.5 695.1,98.5 683.2,63.6 683.2,117.2 673.9,117.2 673.9,40.7 
		682.7,40.7 698.1,83.3 713.5,40.7 722.2,40.7 722.2,117.2 	"/>
	<path class="st0" d="M764,117.2l-3.7-18h-17.7l-3.7,18h-9.7l17.8-76.5h8.9l17.7,76.5H764z M751.5,55.7l-7.2,35.2h14.3L751.5,55.7z"
		/>
	<polygon class="st0" points="809.8,117.2 790.1,64.9 790.1,117.2 780.8,117.2 780.8,40.7 789.4,40.7 809,93 809,40.7 818.2,40.7 
		818.2,117.2 	"/>
	<rect x="829" y="40.7" class="st0" width="9.2" height="76.5"/>
	<polygon class="st0" points="868.1,49 868.1,117.2 858.9,117.2 858.9,49 846,49 846,40.7 880.9,40.7 880.9,49 	"/>
	<polygon class="st0" points="909,86.3 909,117.2 899.8,117.2 899.8,86.3 885.7,40.7 895.8,40.7 904.4,73.4 913,40.7 923.2,40.7 	
		"/>
</g>
</svg>
